<?xml version="1.0" encoding="UTF-8"?>
<!DOCTYPE svg PUBLIC "-//W3C//DTD SVG 1.1//EN" "http://www.w3.org/Graphics/SVG/1.1/DTD/svg11.dtd">
<svg xmlns="http://www.w3.org/2000/svg" version="1.1" width="1920px" height="1080px" style="shape-rendering:geometricPrecision; text-rendering:geometricPrecision; image-rendering:optimizeQuality; fill-rule:evenodd; clip-rule:evenodd" xmlns:xlink="http://www.w3.org/1999/xlink">
<g><path style="opacity:1" fill="#fefeff" d="M -0.5,-0.5 C 639.5,-0.5 1279.5,-0.5 1919.5,-0.5C 1919.5,359.5 1919.5,719.5 1919.5,1079.5C 1279.5,1079.5 639.5,1079.5 -0.5,1079.5C -0.5,719.5 -0.5,359.5 -0.5,-0.5 Z"/></g>
<g><path style="opacity:1" fill="#067aff" d="M 713.5,682.5 C 712.357,685.976 712.19,689.642 713,693.5C 713.44,691.134 713.94,688.801 714.5,686.5C 714.298,684.011 714.798,681.677 716,679.5C 716.167,691.495 716.001,703.495 715.5,715.5C 715.519,724.862 716.019,734.195 717,743.5C 721.622,765.749 732.789,769.582 750.5,755C 756.708,748.461 762.541,741.627 768,734.5C 780.12,717.707 791.453,700.374 802,682.5C 816.921,655.66 831.587,628.66 846,601.5C 853.18,587.125 859.68,572.458 865.5,557.5C 866.325,556.614 867.325,556.281 868.5,556.5C 873.687,535.074 881.521,514.408 892,494.5C 901.35,478.94 913.517,466.107 928.5,456C 940.721,449.798 952.721,450.131 964.5,457C 984.062,478.323 989.228,502.823 980,530.5C 973.34,540.586 964.173,544.753 952.5,543C 947.627,540.068 947.294,536.735 951.5,533C 950.919,532.107 950.585,531.107 950.5,530C 952.007,522.785 953.674,515.618 955.5,508.5C 956.309,510.292 956.809,512.292 957,514.5C 957.498,511.518 957.665,508.518 957.5,505.5C 958.27,495.881 957.27,486.547 954.5,477.5C 953.177,475.318 951.51,474.651 949.5,475.5C 944.959,477.202 941.459,480.202 939,484.5C 935.262,491.97 932.095,499.637 929.5,507.5C 926.202,513.433 924.036,519.766 923,526.5C 923.278,525.584 923.778,524.918 924.5,524.5C 912.24,560.212 904.073,596.879 900,634.5C 898.65,650.341 899.65,666.008 903,681.5C 903.754,688.921 907.754,692.921 915,693.5C 919.889,693.204 924.389,691.704 928.5,689C 941.629,678.206 954.462,667.04 967,655.5C 966.016,653.402 966.349,651.402 968,649.5C 998.906,608.69 1027.57,566.356 1054,522.5C 1060.5,514.667 1067.67,507.5 1075.5,501C 1083.89,495.555 1092.72,491.055 1102,487.5C 1106.02,469.138 1114.02,452.804 1126,438.5C 1132.53,430.828 1140.36,424.995 1149.5,421C 1161.03,419.373 1171.7,421.707 1181.5,428C 1187.5,432.667 1193.5,437.333 1199.5,442C 1198.36,442.741 1198.36,443.575 1199.5,444.5C 1207.57,449.95 1212.07,457.616 1213,467.5C 1213.67,477.833 1213.67,488.167 1213,498.5C 1210.4,514.226 1207.56,529.893 1204.5,545.5C 1214.56,543.485 1224.56,541.151 1234.5,538.5C 1237.28,521.325 1243.11,505.325 1252,490.5C 1253.2,487.226 1254.2,483.893 1255,480.5C 1257.56,477.651 1260.73,476.817 1264.5,478C 1266,479.252 1267.67,480.252 1269.5,481C 1274.98,488.112 1280.81,494.946 1287,501.5C 1287.67,504.167 1287.67,506.833 1287,509.5C 1282,517.5 1277,525.5 1272,533.5C 1271.67,537.167 1271.33,540.833 1271,544.5C 1267.51,554.29 1264.85,564.29 1263,574.5C 1262.33,578.5 1262.33,582.5 1263,586.5C 1264.07,590.084 1264.74,593.75 1265,597.5C 1274.89,569.063 1285.89,541.063 1298,513.5C 1311.58,488.673 1325.91,464.339 1341,440.5C 1355.72,423.631 1370.72,423.297 1386,439.5C 1392.94,449.423 1394.27,460.09 1390,471.5C 1379.38,497.299 1371.88,523.966 1367.5,551.5C 1366.18,554.28 1365.68,557.28 1366,560.5C 1366.85,558.146 1367.68,555.812 1368.5,553.5C 1371.77,547.292 1374.77,540.959 1377.5,534.5C 1378.96,533.594 1379.96,532.261 1380.5,530.5C 1380.03,529.537 1379.36,529.537 1378.5,530.5C 1390.96,508.864 1404.46,487.864 1419,467.5C 1426.71,458.394 1436.21,451.894 1447.5,448C 1455.42,446.052 1462.25,447.885 1468,453.5C 1476.1,467.517 1478.43,482.517 1475,498.5C 1468.02,527.455 1459.02,555.788 1448,583.5C 1445.97,591.136 1444.14,598.803 1442.5,606.5C 1443.13,612.934 1443.8,619.267 1444.5,625.5C 1445,631.41 1448,632.91 1453.5,630C 1455.39,627.81 1457.56,625.977 1460,624.5C 1482.73,595.368 1504.73,565.701 1526,535.5C 1533.42,502.671 1547.75,473.338 1569,447.5C 1591.49,422.779 1617.66,417.946 1647.5,433C 1659.86,443.891 1663.69,457.391 1659,473.5C 1654.15,488.215 1646.48,501.215 1636,512.5C 1623.98,526.196 1610.48,538.029 1595.5,548C 1587.04,551.979 1578.54,555.812 1570,559.5C 1567.38,580.941 1564.88,602.441 1562.5,624C 1562.12,631.436 1563.29,638.602 1566,645.5C 1568,648.167 1570.67,649.5 1574,649.5C 1580.06,648.705 1585.56,646.538 1590.5,643C 1609,628.5 1625.5,612 1640,593.5C 1648.36,577.128 1658.36,561.795 1670,547.5C 1679.06,534.101 1687.73,520.434 1696,506.5C 1698.17,504.333 1700.33,502.167 1702.5,500C 1707.53,498.433 1711.37,499.933 1714,504.5C 1714.67,506.833 1714.67,509.167 1714,511.5C 1694.32,542.196 1673.65,572.196 1652,601.5C 1643.92,614.67 1635.58,627.67 1627,640.5C 1619.17,649.667 1610.67,658.167 1601.5,666C 1587.2,676.642 1571.86,678.309 1555.5,671C 1542.86,665.526 1532.86,657.026 1525.5,645.5C 1523.51,638.56 1522.84,631.56 1523.5,624.5C 1525.01,613.786 1526.84,603.119 1529,592.5C 1530.52,583.541 1531.19,574.541 1531,565.5C 1527.2,571.439 1524.2,577.773 1522,584.5C 1521.71,594.347 1521.21,604.18 1520.5,614C 1520.65,616.216 1520.99,618.383 1521.5,620.5C 1521.15,627.443 1521.82,634.277 1523.5,641C 1523.43,641.765 1523.1,642.265 1522.5,642.5C 1520.17,637.355 1518.34,632.022 1517,626.5C 1516.38,613.434 1516.71,600.434 1518,587.5C 1504.34,610.651 1488.84,632.485 1471.5,653C 1457.48,665.722 1442.48,666.889 1426.5,656.5C 1422.85,652.348 1419.02,648.348 1415,644.5C 1408.55,630.911 1404.88,616.578 1404,601.5C 1402.13,576.644 1406.47,552.977 1417,530.5C 1417.33,531.5 1417.67,532.5 1418,533.5C 1418.92,529.581 1420.08,525.747 1421.5,522C 1421.26,521.127 1420.93,520.293 1420.5,519.5C 1425.14,505.426 1429.64,491.426 1434,477.5C 1430.42,481.653 1427.09,485.986 1424,490.5C 1414.07,509.367 1402.41,527.034 1389,543.5C 1379.67,562.798 1370.34,582.132 1361,601.5C 1357.64,607.842 1352.47,610.008 1345.5,608C 1335.07,602.905 1329.41,594.572 1328.5,583C 1329.18,576.269 1330.18,569.603 1331.5,563C 1330.11,555.802 1330.28,548.636 1332,541.5C 1340.3,518.299 1348.3,494.966 1356,471.5C 1358.28,466.426 1358.78,461.26 1357.5,456C 1356.22,455.316 1355.05,455.483 1354,456.5C 1347.39,466.777 1340.39,476.777 1333,486.5C 1327.08,497.343 1321.41,508.343 1316,519.5C 1298.61,559.046 1282.44,598.879 1267.5,639C 1251.89,638.778 1240.06,631.944 1232,618.5C 1230.26,615.043 1229.26,611.377 1229,607.5C 1227.18,591.109 1227.35,574.776 1229.5,558.5C 1218.84,559.72 1208.51,562.22 1198.5,566C 1193.02,574.464 1188.18,583.298 1184,592.5C 1178.64,601.25 1172.8,609.583 1166.5,617.5C 1165.78,617.082 1165.28,616.416 1165,615.5C 1163.25,617.351 1161.75,619.351 1160.5,621.5C 1155.7,626.775 1152.2,632.775 1150,639.5C 1141.13,648.038 1131.96,656.204 1122.5,664C 1090.54,685.016 1061.7,681.183 1036,652.5C 1026.81,640.773 1021.47,627.439 1020,612.5C 999.185,647.893 973.685,679.727 943.5,708C 931.925,718.955 918.259,725.955 902.5,729C 889.84,731.716 879.34,728.216 871,718.5C 866.504,712.844 862.504,706.844 859,700.5C 858.405,699.101 858.572,697.768 859.5,696.5C 853.968,687.669 851.301,678.002 851.5,667.5C 851.667,656.828 851.5,646.161 851,635.5C 850.487,636.527 849.987,637.527 849.5,638.5C 826.925,686.019 799.092,730.019 766,770.5C 754.268,784.112 739.768,793.279 722.5,798C 703.713,798.898 689.213,791.398 679,775.5C 668.089,752.777 663.255,728.777 664.5,703.5C 665.239,674.825 668.739,646.491 675,618.5C 675.667,615.5 675.667,612.5 675,609.5C 661.11,630.722 646.444,651.389 631,671.5C 620.495,691.01 607.662,708.844 592.5,725C 587.457,729.712 582.123,734.045 576.5,738C 564.66,744.197 552.327,745.197 539.5,741C 528.414,736.375 518.58,729.875 510,721.5C 507.843,719.183 506.343,716.516 505.5,713.5C 503.9,707.311 503.233,700.978 503.5,694.5C 506.985,675.288 509.652,655.955 511.5,636.5C 511.5,631.167 511.5,625.833 511.5,620.5C 510.691,622.028 510.024,623.694 509.5,625.5C 507.57,634.981 505.07,644.314 502,653.5C 501.796,666.487 501.963,679.487 502.5,692.5C 501.565,698.728 501.898,705.062 503.5,711.5C 501.774,709.058 500.274,706.391 499,703.5C 497.131,695.779 496.298,687.946 496.5,680C 497.412,648.615 501.912,617.782 510,587.5C 518.36,562.774 530.36,540.107 546,519.5C 554.273,509.124 564.439,501.291 576.5,496C 597.918,489.067 617.085,492.9 634,507.5C 638.885,513.654 641.051,520.654 640.5,528.5C 639.689,539.774 636.523,550.441 631,560.5C 615.874,581.959 597.708,600.459 576.5,616C 568.95,619.608 561.283,622.942 553.5,626C 551.714,626.785 550.214,627.951 549,629.5C 546.727,650.808 544.561,672.142 542.5,693.5C 542.083,701.513 543.75,709.013 547.5,716C 551.039,717.504 554.705,717.837 558.5,717C 566.967,713.602 574.634,708.935 581.5,703C 596.101,689.403 609.601,674.903 622,659.5C 623.53,654.108 625.863,649.108 629,644.5C 646.987,620.529 663.987,595.863 680,570.5C 693.024,521.738 706.357,473.071 720,424.5C 732.208,389.751 746.875,356.084 764,323.5C 764.667,322.167 765.333,322.167 766,323.5C 774.848,303.559 785.181,284.559 797,266.5C 802.044,258.449 808.211,251.283 815.5,245C 828.014,237.433 840.348,237.767 852.5,246C 870.63,263.064 877.13,283.897 872,308.5C 869.138,323.143 865.138,337.476 860,351.5C 851.112,374.163 841.445,396.496 831,418.5C 825.333,426.833 819.667,435.167 814,443.5C 801.351,469.471 787.684,494.804 773,519.5C 759.916,540.669 746.583,561.669 733,582.5C 725.151,615.579 718.651,648.913 713.5,682.5 Z"/></g>
<g><path style="opacity:1" fill="#097bff" d="M 1803.5,244.5 C 1814.99,242.603 1825.32,245.103 1834.5,252C 1840.76,259.542 1842.26,268.042 1839,277.5C 1815.08,354.162 1795.08,431.829 1779,510.5C 1774.51,526.8 1770.18,543.133 1766,559.5C 1763.39,566.664 1760.39,573.664 1757,580.5C 1750.62,587.623 1745.29,586.956 1741,578.5C 1739.46,572.251 1739.13,565.917 1740,559.5C 1758.1,470.151 1772.1,380.151 1782,289.5C 1782.33,279.5 1782.67,269.5 1783,259.5C 1787.76,251.561 1794.59,246.561 1803.5,244.5 Z"/></g>
<g><path style="opacity:1" fill="#fafcff" d="M 839.5,319.5 C 835.322,330.026 831.322,340.692 827.5,351.5C 828.167,350.833 828.833,350.167 829.5,349.5C 823.286,368.632 815.786,387.299 807,405.5C 788.997,441.508 770.497,477.174 751.5,512.5C 750.596,511.791 750.263,510.791 750.5,509.5C 764.987,442.206 784.821,376.539 810,312.5C 814.824,302.183 820.158,292.183 826,282.5C 829.766,276.896 834.6,272.563 840.5,269.5C 842.383,269.876 843.883,270.876 845,272.5C 846.748,281.139 846.748,289.806 845,298.5C 843.314,305.578 841.481,312.578 839.5,319.5 Z"/></g>
<g><path style="opacity:1" fill="#067aff" d="M 178.5,571.5 C 186.947,532.704 192.614,493.37 195.5,453.5C 196.655,446.679 196.821,439.679 196,432.5C 195.529,437.844 195.029,443.178 194.5,448.5C 189.951,488.678 184.284,528.678 177.5,568.5C 172.63,594.981 166.964,621.315 160.5,647.5C 160.167,647.5 159.833,647.5 159.5,647.5C 161.567,629.766 164.067,612.099 167,594.5C 171.775,578.735 175.608,562.735 178.5,546.5C 177.376,540.552 177.21,534.552 178,528.5C 179.66,519.889 180.993,511.222 182,502.5C 182.248,486.48 182.915,470.48 184,454.5C 184.202,449.011 185.202,443.678 187,438.5C 188,437.833 189,437.167 190,436.5C 190.497,433.854 190.664,431.187 190.5,428.5C 189.903,418.133 189.236,408.466 188.5,399.5C 184.886,402.149 180.886,403.315 176.5,403C 174.641,401.442 173.141,399.609 172,397.5C 168.683,376.776 174.849,359.61 190.5,346C 195.392,343.374 200.225,343.208 205,345.5C 212.713,343.848 219.046,346.181 224,352.5C 235.321,367.301 239.821,383.967 237.5,402.5C 239.491,410.641 239.991,418.975 239,427.5C 238.667,427.833 238.333,428.167 238,428.5C 237.667,426.5 237.333,424.5 237,422.5C 236.642,431.515 236.142,440.515 235.5,449.5C 234.527,451.948 234.194,454.615 234.5,457.5C 234.5,458.5 234.5,459.5 234.5,460.5C 233.253,466.63 232.586,472.963 232.5,479.5C 231.147,486.305 230.147,493.305 229.5,500.5C 229.511,502.045 229.844,503.378 230.5,504.5C 225.464,558.789 218.631,612.789 210,666.5C 226.946,639.613 242.613,611.946 257,583.5C 276.618,556.603 293.951,528.27 309,498.5C 329.216,467.898 350.05,437.731 371.5,408C 377.782,405.735 383.782,406.402 389.5,410C 400.127,416.25 404.96,425.417 404,437.5C 403.117,440.102 401.617,442.269 399.5,444C 401.418,445.77 401.918,447.937 401,450.5C 399.864,454.243 398.53,457.91 397,461.5C 395.658,460.098 394.824,460.431 394.5,462.5C 391.524,474.401 389.19,486.401 387.5,498.5C 386.566,499.568 386.232,500.901 386.5,502.5C 386.5,503.167 386.5,503.833 386.5,504.5C 384.368,513.607 383.201,522.94 383,532.5C 383.333,530.833 383.667,529.167 384,527.5C 384.483,528.448 384.649,529.448 384.5,530.5C 383.216,548.222 381.383,565.889 379,583.5C 379.277,616.064 376.777,648.397 371.5,680.5C 371.86,682.421 372.694,684.088 374,685.5C 374.333,692.5 374.667,699.5 375,706.5C 387.266,669.036 402.266,632.703 420,597.5C 437.025,553.117 457.025,510.117 480,468.5C 499.977,430.214 521.977,393.214 546,357.5C 554.667,346.833 563.333,336.167 572,325.5C 574.852,315.265 581.019,312.765 590.5,318C 596.693,322.355 600.693,328.188 602.5,335.5C 602.072,339.62 600.572,343.287 598,346.5C 587.956,354.698 578.29,363.365 569,372.5C 566.548,378.737 563.548,384.737 560,390.5C 550.279,403.221 540.946,416.221 532,429.5C 520.168,449.835 507.835,469.835 495,489.5C 491,499.5 487,509.5 483,519.5C 459.473,561.553 439.473,605.22 423,650.5C 405.086,689.655 389.419,729.655 376,770.5C 359.224,778.224 344.891,774.891 333,760.5C 329.863,755.892 327.53,750.892 326,745.5C 322.03,713.302 320.696,680.969 322,648.5C 323.348,639.774 325.015,631.107 327,622.5C 327.656,615.317 327.489,608.15 326.5,601C 329.569,579.614 331.735,558.114 333,536.5C 333.119,529.814 335.452,524.147 340,519.5C 341.896,507.468 343.563,495.468 345,483.5C 332.447,503.384 319.114,522.717 305,541.5C 278.413,589.006 252.08,636.673 226,684.5C 218.448,701.271 210.115,717.604 201,733.5C 197.486,743.472 194.152,753.472 191,763.5C 179.845,774.411 166.678,777.577 151.5,773C 142.697,769.729 138.364,763.395 138.5,754C 142.564,734.571 146.398,715.071 150,695.5C 156.003,672.82 162.003,650.153 168,627.5C 171.439,608.806 174.939,590.139 178.5,571.5 Z"/></g>
<g><path style="opacity:1" fill="#e8f1ff" d="M 758.5,364.5 C 757.833,364.5 757.5,364.167 757.5,363.5C 763.237,343.692 772.404,325.692 785,309.5C 776.759,327.986 767.926,346.319 758.5,364.5 Z"/></g>
<g><path style="opacity:1" fill="#91c3ff" d="M 839.5,319.5 C 837.541,330.043 834.208,340.043 829.5,349.5C 828.833,350.167 828.167,350.833 827.5,351.5C 831.322,340.692 835.322,330.026 839.5,319.5 Z"/></g>
<g><path style="opacity:1" fill="#5fa5ff" d="M 827.5,351.5 C 827.293,354.241 826.293,356.574 824.5,358.5C 824.707,355.759 825.707,353.426 827.5,351.5 Z"/></g>
<g><path style="opacity:1" fill="#5ea4ff" d="M 824.5,358.5 C 822.971,363.25 821.137,367.916 819,372.5C 819.553,367.344 821.386,362.677 824.5,358.5 Z"/></g>
<g><path style="opacity:1" fill="#8fc1ff" d="M 757.5,363.5 C 757.5,364.167 757.833,364.5 758.5,364.5C 757.597,366.636 756.431,368.636 755,370.5C 755.262,367.974 756.095,365.64 757.5,363.5 Z"/></g>
<g><path style="opacity:1" fill="#59a2ff" d="M 813.5,383.5 C 814.092,380.309 815.259,377.309 817,374.5C 816.956,377.923 815.79,380.923 813.5,383.5 Z"/></g>
<g><path style="opacity:1" fill="#4a99ff" d="M 813.5,383.5 C 812.572,387.362 811.072,391.029 809,394.5C 809.381,390.4 810.881,386.734 813.5,383.5 Z"/></g>
<g><path style="opacity:1" fill="#f0f6ff" d="M 1776.5,454.5 C 1775.66,454.158 1775.33,453.492 1775.5,452.5C 1776.08,443.816 1776.92,435.149 1778,426.5C 1781.89,413.358 1784.89,400.025 1787,386.5C 1787.42,409.802 1783.92,432.469 1776.5,454.5 Z"/></g>
<g><path style="opacity:1" fill="#badbff" d="M 190.5,428.5 C 188.527,419.225 187.86,409.558 188.5,399.5C 189.236,408.466 189.903,418.133 190.5,428.5 Z"/></g>
<g><path style="opacity:1" fill="#5aa2ff" d="M 806.5,396.5 C 807.097,396.735 807.43,397.235 807.5,398C 806.136,401.227 804.636,404.394 803,407.5C 803.545,403.717 804.712,400.05 806.5,396.5 Z"/></g>
<g><path style="opacity:1" fill="#4392ff" d="M 800.5,409.5 C 801.573,410.251 801.74,411.251 801,412.5C 796.095,423.315 790.428,433.648 784,443.5C 789.18,432.136 794.68,420.803 800.5,409.5 Z"/></g>
<g><path style="opacity:1" fill="#fdfdff" d="M 1164.5,440.5 C 1172.38,439.688 1177.55,443.021 1180,450.5C 1182.38,459.353 1183.05,468.353 1182,477.5C 1179.53,496.985 1176.2,516.318 1172,535.5C 1170.11,540.947 1167.94,546.28 1165.5,551.5C 1155.57,553.996 1145.57,554.162 1135.5,552C 1128.99,549.833 1125.16,545.333 1124,538.5C 1121.64,518.625 1125.31,499.958 1135,482.5C 1135.45,479.868 1136.28,477.368 1137.5,475C 1136.55,472.337 1137.05,469.837 1139,467.5C 1145.31,456.357 1153.81,447.357 1164.5,440.5 Z"/></g>
<g><path style="opacity:1" fill="#fbfcff" d="M 1620.5,441.5 C 1625.96,440.784 1629.46,443.117 1631,448.5C 1631.5,451.5 1632,454.5 1632.5,457.5C 1631.78,464.48 1631.28,471.48 1631,478.5C 1618.17,502.162 1600.34,521.162 1577.5,535.5C 1583.64,508.61 1593.47,482.943 1607,458.5C 1610.63,452.045 1615.13,446.379 1620.5,441.5 Z"/></g>
<g><path style="opacity:1" fill="#7cb8ff" d="M 195.5,453.5 C 195.784,451.585 195.451,449.919 194.5,448.5C 195.029,443.178 195.529,437.844 196,432.5C 196.821,439.679 196.655,446.679 195.5,453.5 Z"/></g>
<g><path style="opacity:1" fill="#aad0ff" d="M 235.5,449.5 C 236.283,453.146 236.45,456.812 236,460.5C 235.768,459.263 235.268,458.263 234.5,457.5C 234.194,454.615 234.527,451.948 235.5,449.5 Z"/></g>
<g><path style="opacity:1" fill="#93c3ff" d="M 1775.5,452.5 C 1775.33,453.492 1775.66,454.158 1776.5,454.5C 1775.77,457.179 1774.94,459.846 1774,462.5C 1773.76,458.967 1774.26,455.633 1775.5,452.5 Z"/></g>
<g><path style="opacity:1" fill="#e2eeff" d="M 194.5,448.5 C 195.451,449.919 195.784,451.585 195.5,453.5C 192.614,493.37 186.947,532.704 178.5,571.5C 178.737,570.209 178.404,569.209 177.5,568.5C 184.284,528.678 189.951,488.678 194.5,448.5 Z"/></g>
<g><path style="opacity:1" fill="#9bc8ff" d="M 1354.5,497.5 C 1358.44,484.078 1361.27,470.412 1363,456.5C 1363.15,470.877 1360.32,484.543 1354.5,497.5 Z"/></g>
<g><path style="opacity:1" fill="#8ec2ff" d="M 234.5,460.5 C 235.571,466.874 235.238,473.208 233.5,479.5C 233.167,479.5 232.833,479.5 232.5,479.5C 232.586,472.963 233.253,466.63 234.5,460.5 Z"/></g>
<g><path style="opacity:1" fill="#91bfff" d="M 954.5,477.5 C 952.5,477.5 950.5,477.5 948.5,477.5C 948.833,476.833 949.167,476.167 949.5,475.5C 951.51,474.651 953.177,475.318 954.5,477.5 Z"/></g>
<g><path style="opacity:1" fill="#378dff" d="M 948.5,477.5 C 945.488,481.538 942.488,485.538 939.5,489.5C 940.462,486.243 941.962,483.243 944,480.5C 945.129,478.859 946.629,477.859 948.5,477.5 Z"/></g>
<g><path style="opacity:1" fill="#c6ddff" d="M 949.5,475.5 C 949.167,476.167 948.833,476.833 948.5,477.5C 946.629,477.859 945.129,478.859 944,480.5C 941.962,483.243 940.462,486.243 939.5,489.5C 937.674,494.484 935.341,499.151 932.5,503.5C 931.5,504.833 930.5,506.167 929.5,507.5C 932.095,499.637 935.262,491.97 939,484.5C 941.459,480.202 944.959,477.202 949.5,475.5 Z"/></g>
<g><path style="opacity:1" fill="#57a4ff" d="M 232.5,479.5 C 232.833,479.5 233.167,479.5 233.5,479.5C 232.861,487.92 231.861,496.254 230.5,504.5C 229.844,503.378 229.511,502.045 229.5,500.5C 230.147,493.305 231.147,486.305 232.5,479.5 Z"/></g>
<g><path style="opacity:1" fill="#7bb5ff" d="M 1354.5,497.5 C 1353.2,503.05 1351.54,508.383 1349.5,513.5C 1349.5,512.833 1349.17,512.5 1348.5,512.5C 1350.13,507.265 1352.13,502.265 1354.5,497.5 Z"/></g>
<g><path style="opacity:1" fill="#a1ccff" d="M 387.5,498.5 C 388.537,500.738 388.703,503.071 388,505.5C 387.768,504.263 387.268,503.263 386.5,502.5C 386.232,500.901 386.566,499.568 387.5,498.5 Z"/></g>
<g><path style="opacity:1" fill="#fbfdff" d="M 600.5,509.5 C 606.983,510.145 610.817,513.811 612,520.5C 611.948,529.488 611.615,538.488 611,547.5C 597.474,570.694 579.474,589.694 557,604.5C 562.239,585.244 568.572,566.244 576,547.5C 582.433,533.614 590.599,520.948 600.5,509.5 Z"/></g>
<g><path style="opacity:1" fill="#59a6ff" d="M 957.5,505.5 C 957.665,508.518 957.498,511.518 957,514.5C 956.809,512.292 956.309,510.292 955.5,508.5C 955.427,506.973 956.094,505.973 957.5,505.5 Z"/></g>
<g><path style="opacity:1" fill="#a7ceff" d="M 750.5,509.5 C 750.263,510.791 750.596,511.791 751.5,512.5C 750.68,514.14 749.847,515.807 749,517.5C 748.567,514.581 749.067,511.914 750.5,509.5 Z"/></g>
<g><path style="opacity:1" fill="#6fabff" d="M 932.5,503.5 C 930.275,510.791 927.608,517.791 924.5,524.5C 923.778,524.918 923.278,525.584 923,526.5C 924.036,519.766 926.202,513.433 929.5,507.5C 930.5,506.167 931.5,504.833 932.5,503.5 Z"/></g>
<g><path style="opacity:1" fill="#e6f0ff" d="M 1348.5,512.5 C 1349.17,512.5 1349.5,512.833 1349.5,513.5C 1345.08,531.939 1340.41,550.272 1335.5,568.5C 1334.6,567.791 1334.26,566.791 1334.5,565.5C 1336.63,547.171 1341.3,529.505 1348.5,512.5 Z"/></g>
<g><path style="opacity:1" fill="#73afff" d="M 386.5,504.5 C 387.142,513.339 386.475,522.005 384.5,530.5C 384.649,529.448 384.483,528.448 384,527.5C 383.667,529.167 383.333,530.833 383,532.5C 383.201,522.94 384.368,513.607 386.5,504.5 Z"/></g>
<g><path style="opacity:1" fill="#98c4ff" d="M 1377.5,534.5 C 1376.64,535.463 1375.97,535.463 1375.5,534.5C 1376.52,533.099 1377.52,531.765 1378.5,530.5C 1379.36,529.537 1380.03,529.537 1380.5,530.5C 1379.96,532.261 1378.96,533.594 1377.5,534.5 Z"/></g>
<g><path style="opacity:1" fill="#fdfeff" d="M 1098.5,531.5 C 1105.05,546.211 1116.05,556.377 1131.5,562C 1140.68,564.586 1150.02,566.419 1159.5,567.5C 1148.82,594.994 1132.82,618.827 1111.5,639C 1100.55,648.481 1087.88,653.481 1073.5,654C 1068.95,652.412 1066.11,649.245 1065,644.5C 1064.27,635.13 1064.6,625.797 1066,616.5C 1073.61,586.837 1084.44,558.503 1098.5,531.5 Z"/></g>
<g><path style="opacity:1" fill="#b1d3ff" d="M 379.5,549.5 C 380.302,554.424 379.802,559.424 378,564.5C 377.182,559.349 377.682,554.349 379.5,549.5 Z"/></g>
<g><path style="opacity:1" fill="#9fcaff" d="M 1367.5,551.5 C 1367.33,552.492 1367.66,553.158 1368.5,553.5C 1367.68,555.812 1366.85,558.146 1366,560.5C 1365.68,557.28 1366.18,554.28 1367.5,551.5 Z"/></g>
<g><path style="opacity:1" fill="#67adff" d="M 1334.5,565.5 C 1334.26,566.791 1334.6,567.791 1335.5,568.5C 1334.86,571.456 1334.36,574.456 1334,577.5C 1333.19,573.311 1333.35,569.311 1334.5,565.5 Z"/></g>
<g><path style="opacity:1" fill="#eaf2ff" d="M 1523.5,624.5 C 1522.83,623.167 1522.17,621.833 1521.5,620.5C 1520.99,618.383 1520.65,616.216 1520.5,614C 1521.21,604.18 1521.71,594.347 1522,584.5C 1524.2,577.773 1527.2,571.439 1531,565.5C 1531.19,574.541 1530.52,583.541 1529,592.5C 1526.84,603.119 1525.01,613.786 1523.5,624.5 Z"/></g>
<g><path style="opacity:1" fill="#abd2ff" d="M 1444.5,625.5 C 1443.8,619.267 1443.13,612.934 1442.5,606.5C 1443.12,606.389 1443.62,606.056 1444,605.5C 1444.5,612.158 1444.67,618.825 1444.5,625.5 Z"/></g>
<g><path style="opacity:1" fill="#077bff" d="M 1741.5,612.5 C 1748.94,612.151 1756.27,612.818 1763.5,614.5C 1765.79,617.917 1766.13,621.584 1764.5,625.5C 1765.46,627.329 1766.46,629.162 1767.5,631C 1764.64,640.229 1760.8,649.063 1756,657.5C 1749.11,664.387 1742.28,671.221 1735.5,678C 1731.93,679.405 1728.26,679.738 1724.5,679C 1718.03,675.347 1712.2,670.847 1707,665.5C 1704.75,660.375 1704.09,655.042 1705,649.5C 1711.38,631.29 1723.54,618.957 1741.5,612.5 Z"/></g>
<g><path style="opacity:1" fill="#5899ff" d="M 1166.5,617.5 C 1165.08,620.343 1163.08,621.676 1160.5,621.5C 1161.75,619.351 1163.25,617.351 1165,615.5C 1165.28,616.416 1165.78,617.082 1166.5,617.5 Z"/></g>
<g><path style="opacity:1" fill="#6db0ff" d="M 511.5,620.5 C 511.46,617.575 512.293,614.909 514,612.5C 514.022,615.451 513.189,618.117 511.5,620.5 Z"/></g>
<g><path style="opacity:1" fill="#78b4ff" d="M 863.5,614.5 C 864.478,614.811 865.145,615.478 865.5,616.5C 864.345,621.095 863.512,625.762 863,630.5C 862.471,625.146 862.638,619.813 863.5,614.5 Z"/></g>
<g><path style="opacity:1" fill="#5aa6ff" d="M 511.5,620.5 C 511.5,625.833 511.5,631.167 511.5,636.5C 510.833,632.833 510.167,629.167 509.5,625.5C 510.024,623.694 510.691,622.028 511.5,620.5 Z"/></g>
<g><path style="opacity:1" fill="#f0f6ff" d="M 509.5,625.5 C 510.167,629.167 510.833,632.833 511.5,636.5C 509.652,655.955 506.985,675.288 503.5,694.5C 502.662,694.158 502.328,693.492 502.5,692.5C 501.963,679.487 501.796,666.487 502,653.5C 505.07,644.314 507.57,634.981 509.5,625.5 Z"/></g>
<g><path style="opacity:1" fill="#87beff" d="M 1521.5,620.5 C 1522.17,621.833 1522.83,623.167 1523.5,624.5C 1522.84,631.56 1523.51,638.56 1525.5,645.5C 1524.17,644.833 1523.17,643.833 1522.5,642.5C 1523.1,642.265 1523.43,641.765 1523.5,641C 1521.82,634.277 1521.15,627.443 1521.5,620.5 Z"/></g>
<g><path style="opacity:1" fill="#c3ddff" d="M 685.5,615.5 C 686.124,615.917 686.457,616.584 686.5,617.5C 685.565,620.471 684.732,623.471 684,626.5C 682.435,642.846 680.768,659.179 679,675.5C 679.051,660.123 680.051,644.79 682,629.5C 682.236,624.555 683.403,619.888 685.5,615.5 Z"/></g>
<g><path style="opacity:1" fill="#5da7ff" d="M 851.5,667.5 C 850.833,657.833 850.167,648.167 849.5,638.5C 849.987,637.527 850.487,636.527 851,635.5C 851.5,646.161 851.667,656.828 851.5,667.5 Z"/></g>
<g><path style="opacity:1" fill="#8dc2ff" d="M 159.5,647.5 C 159.833,647.5 160.167,647.5 160.5,647.5C 160.005,649.482 159.505,651.482 159,653.5C 158.211,651.288 158.378,649.288 159.5,647.5 Z"/></g>
<g><path style="opacity:1" fill="#89bfff" d="M 713.5,682.5 C 713.232,684.099 713.566,685.432 714.5,686.5C 713.94,688.801 713.44,691.134 713,693.5C 712.19,689.642 712.357,685.976 713.5,682.5 Z"/></g>
<g><path style="opacity:1" fill="#84bcff" d="M 502.5,692.5 C 502.328,693.492 502.662,694.158 503.5,694.5C 503.233,700.978 503.9,707.311 505.5,713.5C 504.167,713.5 503.5,712.833 503.5,711.5C 501.898,705.062 501.565,698.728 502.5,692.5 Z"/></g>
</svg>
