<svg xmlns="http://www.w3.org/2000/svg" width="1920" height="1080" viewBox="0 0 1920 1080" version="1.1"><path d="M 160.732 598.059 C 128.064 601.819, 102.531 627.012, 100.306 657.681 C 99.148 673.646, 104.117 687.483, 115.376 699.644 C 123.691 708.624, 130.428 713.082, 152.500 724.207 C 173.835 734.962, 178.437 737.946, 179.825 741.929 C 181.298 746.152, 179.609 751.430, 175.952 754.034 C 172.022 756.833, 161.559 758.295, 154.079 757.090 C 144.520 755.551, 132.914 750.004, 119.500 740.564 C 111.472 734.914, 110.493 734.643, 107.625 737.286 C 104.171 740.471, 83 776.797, 83 779.540 C 83 783.903, 99.060 794.881, 114.471 801.052 C 129.485 807.064, 139.982 809.208, 157.015 809.741 C 174.892 810.301, 183.481 809.248, 196.437 804.907 C 207.921 801.059, 215.950 796.191, 223.648 788.407 C 233.736 778.207, 239.417 764.680, 240.618 748 C 241.832 731.126, 236.762 717.803, 224.431 705.467 C 214.817 695.848, 205.899 690.161, 186.199 681.086 C 159.944 668.992, 153.767 664.291, 155.623 657.820 C 157.166 652.440, 160.932 650.547, 170.871 650.158 C 178.241 649.869, 180.836 650.229, 187.550 652.471 C 191.922 653.932, 198.797 656.898, 202.827 659.063 C 210.993 663.451, 212.974 663.800, 215.256 661.250 C 218.130 658.038, 235 624.363, 235 621.838 C 235 618.579, 232.137 616.032, 223 611.165 C 204.231 601.166, 179.311 595.921, 160.732 598.059 M 366.906 598.036 C 340.093 601.009, 315.145 613.482, 296.274 633.348 C 268.405 662.687, 259.713 702.748, 273.351 739 C 278.096 751.614, 285.353 763.052, 295.278 773.559 C 311.680 790.924, 328.613 800.939, 353 807.698 C 358.442 809.207, 363.326 809.492, 383 809.450 C 408.153 809.396, 417.872 808.102, 431.282 803.023 C 441.052 799.322, 440.985 799.859, 435.085 772.601 C 432.288 759.680, 430 748.870, 430 748.578 C 430 748.285, 428.913 747.334, 427.585 746.464 C 425.319 744.979, 424.746 745.061, 418.307 747.801 C 405.755 753.143, 398.809 754.483, 384 754.423 C 372.012 754.374, 369.623 754.065, 362.672 751.665 C 358.367 750.178, 352.517 747.464, 349.672 745.633 C 323.785 728.971, 319.214 692.572, 340.220 670.361 C 346.770 663.435, 353.232 659.376, 362.756 656.206 C 369.496 653.962, 372.250 653.621, 384 653.574 C 398.397 653.516, 404.106 654.563, 417.173 659.655 C 424.955 662.688, 428.247 662.325, 429.810 658.263 C 430.395 656.743, 432.961 645.747, 435.513 633.827 C 439.044 617.336, 439.903 611.688, 439.108 610.202 C 437.915 607.972, 431.943 604.951, 424.163 602.641 C 411.372 598.843, 381.380 596.431, 366.906 598.036 M 556.846 598.077 C 523.841 601.575, 493.324 622.414, 477.503 652.257 C 466.858 672.335, 462.954 691.756, 465.028 714.305 C 467.998 746.584, 483.141 774.155, 507.416 791.477 C 515.801 797.461, 530.412 804.289, 541 807.173 C 548.532 809.224, 551.664 809.483, 568.500 809.443 C 586.223 809.400, 588.105 809.215, 596.500 806.681 C 638.432 794.024, 666.082 760.114, 671.016 715.294 C 674.565 683.058, 663.307 650.513, 640.831 628.038 C 631.544 618.751, 623.471 613.042, 611.852 607.545 C 600.399 602.127, 590.476 599.338, 578 598.030 C 567.502 596.930, 567.674 596.930, 556.846 598.077 M 1143.722 598.088 C 1106.261 602.048, 1070.943 626.366, 1054.534 659.500 C 1052.082 664.450, 1048.845 672.550, 1047.339 677.500 C 1044.800 685.846, 1044.602 687.772, 1044.611 704 C 1044.622 724.807, 1046.106 731.725, 1053.940 747.500 C 1069.807 779.452, 1098.758 801.275, 1134.942 808.560 C 1141.919 809.964, 1146.950 810.162, 1163.942 809.701 C 1184.837 809.134, 1191.895 808.144, 1205.168 803.923 C 1213.119 801.394, 1216 799.007, 1216 794.949 C 1216 792.223, 1209.289 759.509, 1206.937 750.767 C 1205.374 744.960, 1203.376 744.510, 1194.658 748 C 1181.528 753.258, 1175.607 754.411, 1161.500 754.457 C 1150.597 754.493, 1147.290 754.123, 1141 752.161 C 1123.587 746.731, 1111.980 735.986, 1106.374 720.107 C 1103.088 710.796, 1103.095 697.183, 1106.392 687.843 C 1112.619 670.202, 1127.053 658.189, 1146.494 654.470 C 1161.115 651.672, 1176.331 653.073, 1190.500 658.520 C 1200.122 662.219, 1203.155 662.592, 1205.204 660.327 C 1206.222 659.202, 1208.649 650.143, 1211.455 636.994 C 1213.977 625.172, 1216.213 614.718, 1216.424 613.762 C 1218.017 606.528, 1199.219 600.098, 1170.406 598.020 C 1155.065 596.914, 1154.823 596.915, 1143.722 598.088 M 703.065 602.935 C 701.006 604.994, 701 605.294, 701 704 C 701 801.667, 701.027 803.027, 703 805 C 704.888 806.888, 706.333 807, 728.777 807 C 748.680 807, 752.917 806.746, 754.777 805.443 L 757 803.887 757 769.443 L 757 735 760.381 735 C 763.717 735, 764.059 735.452, 786.571 769.619 C 799.117 788.660, 810.003 804.860, 810.762 805.619 C 811.869 806.726, 817.567 807, 839.500 807 C 863.037 807, 867.077 806.781, 868.429 805.429 C 869.293 804.564, 870 803.266, 870 802.544 C 870 801.821, 858.689 784.005, 844.864 762.952 L 819.728 724.674 822.614 722.678 C 828.316 718.736, 838.561 707.323, 841.652 701.469 C 846.917 691.501, 849.148 682.774, 849.698 670 C 850.621 648.588, 845.505 634.241, 832.234 621.022 C 823.484 612.307, 814.844 607.466, 801.500 603.802 C 793.936 601.725, 791.092 601.585, 749.315 601.238 C 705.753 600.875, 705.101 600.899, 703.065 602.935 M 896.073 603.635 C 894.008 606.260, 894 606.643, 894 704 C 894 801.357, 894.008 801.740, 896.073 804.365 L 898.145 807 955.350 807 C 1005.507 807, 1012.829 806.808, 1014.777 805.443 C 1016.959 803.915, 1017 803.485, 1017 781.943 C 1017 761.333, 1016.878 759.878, 1015 758 C 1013.086 756.086, 1011.667 756, 982 756 L 951 756 951 742.500 L 951 729 980.845 729 C 1009.916 729, 1010.739 728.945, 1012.595 726.895 C 1014.344 724.963, 1014.500 723.030, 1014.500 703.307 C 1014.500 681.935, 1014.488 681.813, 1012.139 679.912 C 1009.934 678.126, 1007.836 678, 980.389 678 L 951 678 951 665 L 951 652 981.250 651.985 C 1003.620 651.974, 1012.151 651.641, 1014 650.706 L 1016.500 649.442 1016.770 627.071 C 1017.008 607.312, 1016.844 604.485, 1015.365 602.850 C 1013.772 601.091, 1010.862 601, 955.918 601 L 898.145 601 896.073 603.635 M 1319.711 602.250 C 1318.792 602.938, 1300.005 648.201, 1277.961 702.834 C 1239.272 798.720, 1237.936 802.253, 1239.463 804.584 L 1241.046 807 1267.868 807 C 1292.151 807, 1294.838 806.834, 1296.253 805.250 C 1297.112 804.288, 1300.727 795.625, 1304.284 786 L 1310.753 768.500 1343.627 768.255 L 1376.500 768.011 1382.968 785.724 C 1386.526 795.466, 1390.238 804.238, 1391.218 805.218 C 1392.837 806.837, 1395.412 807, 1419.429 807 C 1442.706 807, 1446.055 806.802, 1447.515 805.342 C 1448.427 804.430, 1448.986 802.743, 1448.757 801.592 C 1447.671 796.130, 1369.543 604.309, 1367.769 602.750 C 1366.001 601.196, 1363.296 601, 1343.580 601 C 1327.380 601, 1320.931 601.338, 1319.711 602.250 M 1476.129 603.563 L 1474 606.270 1474 704 C 1474 801.357, 1474.008 801.740, 1476.073 804.365 L 1478.145 807 1502.418 807 C 1525.818 807, 1526.758 806.924, 1528.595 804.896 C 1530.377 802.929, 1530.519 800.598, 1530.788 768.836 L 1531.076 734.879 1534.250 735.189 C 1537.228 735.481, 1538.794 737.587, 1559.661 769.365 C 1571.891 787.991, 1582.666 804.078, 1583.604 805.115 C 1585.196 806.874, 1587.132 807, 1612.464 807 C 1642.134 807, 1643.894 806.696, 1642.662 801.788 C 1642.313 800.399, 1630.959 782.447, 1617.430 761.894 L 1592.832 724.524 1595.166 723.026 C 1599.772 720.069, 1609.298 710.405, 1612.456 705.485 C 1616.609 699.015, 1620.509 689.152, 1622.049 681.229 C 1624.023 671.076, 1622.853 652.115, 1619.698 643.119 C 1614.369 627.926, 1604.095 616.480, 1589.525 609.506 C 1573.240 601.710, 1573.153 601.699, 1522.879 601.252 L 1478.259 600.856 1476.129 603.563 M 1669.721 602.756 C 1668.117 604.528, 1668 611.440, 1668 704.174 C 1668 801.093, 1668.050 803.735, 1669.923 805.430 C 1671.697 807.036, 1674.697 807.135, 1708.673 806.712 C 1747.995 806.222, 1751.322 805.863, 1766.198 800.496 C 1786.057 793.333, 1805.236 778.491, 1816.344 761.692 C 1829.314 742.075, 1835.563 716.697, 1833.072 693.750 C 1831.595 680.144, 1828.872 670.596, 1823.021 658.500 C 1809.982 631.545, 1786.383 612.398, 1756.119 604.219 C 1746.718 601.678, 1745.649 601.611, 1708.971 601.237 C 1673.094 600.871, 1671.366 600.938, 1669.721 602.756 M 159.951 610.027 C 141.885 612.798, 124.248 625.262, 117.112 640.302 C 108.296 658.880, 111.045 677.809, 124.627 692.048 C 132.109 699.892, 138.336 703.912, 155.443 711.940 C 186.223 726.385, 192.196 731.771, 192.133 745.024 C 192.065 759.144, 183.949 766.788, 166.700 768.975 C 152.536 770.770, 137.752 766.675, 121.451 756.441 C 116.645 753.424, 112.599 751.077, 112.460 751.227 C 110.318 753.548, 97.044 777.263, 97.487 777.980 C 98.564 779.721, 111.251 786.816, 118.976 789.995 C 145.471 800.902, 178.937 801.213, 201 790.758 C 209.409 786.773, 219.617 776.701, 223.399 768.657 C 229.599 755.472, 230.621 738.369, 225.830 727.980 C 218.796 712.728, 205.999 702.728, 178.500 690.996 C 155.426 681.152, 146.563 674.654, 144.072 665.757 C 141.829 657.747, 144.043 650.904, 150.876 644.731 C 160.962 635.619, 181.218 635.731, 201.690 645.013 C 205.285 646.644, 208.640 647.723, 209.144 647.411 C 210.161 646.783, 221 625.538, 221 624.174 C 221 623.162, 207.649 616.858, 200.552 614.520 C 188.283 610.477, 170.119 608.467, 159.951 610.027 M 367 610.118 C 324.878 614.937, 288.630 647.582, 280.422 688.088 C 278.228 698.914, 278.923 716.325, 281.972 726.933 C 289.822 754.246, 309.086 776.266, 336.275 789.008 C 353.069 796.877, 369.839 799.504, 393.319 797.941 C 404.754 797.180, 409.591 796.437, 423.765 793.268 C 425.010 792.989, 426.239 792.423, 426.495 792.009 C 426.872 791.398, 421.816 765.555, 420.494 761.336 C 420.237 760.517, 417.924 760.872, 412.701 762.530 C 378.217 773.481, 342.347 763.452, 325.654 738.191 C 301.914 702.267, 319.787 655.979, 362.016 644.017 C 377.465 639.641, 398.268 640.416, 414.408 645.968 C 418.618 647.417, 420.199 647.610, 420.504 646.712 C 420.731 646.045, 422.081 639.875, 423.505 633 C 424.928 626.125, 426.334 619.536, 426.628 618.357 C 427.087 616.521, 426.473 615.995, 422.331 614.672 C 415.123 612.370, 407.787 611.120, 395 610.013 C 381.971 608.885, 377.633 608.901, 367 610.118 M 558 610.032 C 526.642 613.741, 498.601 634.133, 485.341 662.872 C 469.775 696.607, 474.933 738.720, 498.062 766.748 C 516.572 789.177, 545.749 800.662, 577.143 797.877 C 589.665 796.766, 597.086 794.613, 609.574 788.468 C 634.127 776.386, 651.382 753.723, 657.587 725.408 C 660.366 712.724, 659.942 692.153, 656.640 679.500 C 646.674 641.312, 616.044 614.348, 577.784 610.082 C 567.247 608.907, 567.501 608.908, 558 610.032 M 1144.472 610.014 C 1103.522 614.341, 1067.529 645.315, 1057.954 684.468 C 1056.046 692.272, 1055.830 695.258, 1056.288 707.468 C 1056.684 717.988, 1057.365 723.252, 1059.013 728.500 C 1069.060 760.511, 1095.732 785.800, 1129.105 794.955 C 1147.498 800.001, 1178.347 799.352, 1198.646 793.491 L 1203.792 792.005 1200.909 778.252 C 1199.323 770.689, 1197.798 763.534, 1197.520 762.354 L 1197.014 760.208 1189.643 762.549 C 1173.688 767.615, 1154.049 768.162, 1139.016 763.957 C 1127.251 760.666, 1118.498 755.580, 1109.909 747.044 C 1097.873 735.082, 1092 720.966, 1092 704 C 1092 687.063, 1097.861 672.959, 1109.909 660.906 C 1122.084 648.726, 1136.631 642.556, 1156.076 641.325 C 1167.149 640.624, 1179.090 642.100, 1189.756 645.487 L 1197.014 647.792 1197.507 645.646 C 1202.032 625.943, 1203.672 616.421, 1202.649 615.780 C 1199.856 614.029, 1183.421 610.990, 1171.605 610.038 C 1157.547 608.906, 1154.977 608.904, 1144.472 610.014 M 713 703.930 L 713 795 729 795 L 745 795 745 761.635 C 745 720.490, 744.098 723, 758.881 723 C 765.174 723, 769.168 723.442, 770.174 724.250 C 771.030 724.938, 782.012 741.138, 794.578 760.250 L 817.424 795 834.662 795 L 851.900 795 828.450 759.413 C 815.552 739.841, 805 722.998, 805 721.985 C 805 719.647, 807.197 717.450, 811.972 715.014 C 817.245 712.324, 826.229 703.876, 829.899 698.157 C 834.931 690.316, 837.107 682.706, 837.724 670.797 C 838.377 658.199, 837.066 650.102, 832.980 641.500 C 827.228 629.392, 817.394 621.233, 802.578 616.276 L 794.500 613.573 753.750 613.217 L 713 612.860 713 703.930 M 906 704 L 906 795 955.500 795 L 1005 795 1005 781.500 L 1005 768 973.655 768 C 944.558 768, 942.191 767.869, 940.655 766.171 C 939.220 764.586, 939 761.402, 939 742.228 C 939 720.509, 939.040 720.086, 941.223 718.557 C 943.113 717.232, 947.893 717, 973.252 717 L 1003.058 717 1002.779 703.750 L 1002.500 690.500 972.562 690.235 C 946.462 690.004, 942.392 689.759, 940.812 688.330 C 939.169 686.843, 939 684.670, 939 665 C 939 645.257, 939.164 643.161, 940.829 641.655 C 942.448 640.190, 946.227 640, 973.829 640 L 1005 640 1005 626.500 L 1005 613 955.500 613 L 906 613 906 704 M 1326.100 615.226 C 1325.621 616.477, 1309.374 656.869, 1289.993 704.986 C 1270.613 753.103, 1254.534 793.051, 1254.262 793.760 C 1253.868 794.787, 1257.269 794.993, 1271.014 794.774 L 1288.261 794.500 1295.073 776.529 C 1298.820 766.644, 1302.672 757.982, 1303.634 757.279 C 1304.981 756.293, 1314.144 756, 1343.580 756 C 1378.504 756, 1381.956 756.150, 1383.850 757.750 C 1385.045 758.760, 1388.439 766.266, 1391.875 775.500 C 1395.149 784.300, 1398.140 792.288, 1398.521 793.250 C 1399.143 794.820, 1400.949 795, 1416.107 795 C 1425.398 795, 1432.990 794.663, 1432.977 794.250 C 1432.964 793.837, 1416.638 753, 1396.697 703.500 L 1360.440 613.500 1343.705 613.226 C 1327.102 612.954, 1326.962 612.970, 1326.100 615.226 M 1486 703.930 L 1486 795 1502.500 795 L 1519 795 1519 760.655 C 1519 728.652, 1519.125 726.197, 1520.829 724.655 C 1523.564 722.180, 1541.264 722.260, 1543.750 724.759 C 1544.713 725.727, 1555.625 741.916, 1568 760.734 L 1590.500 794.949 1607.756 794.975 L 1625.012 795 1619.659 786.750 C 1616.716 782.212, 1606.274 766.350, 1596.456 751.500 C 1585.885 735.511, 1578.584 723.494, 1578.553 722.033 C 1578.510 720.031, 1580.098 718.492, 1587 713.850 C 1604.204 702.279, 1611.067 688.927, 1611.157 666.850 C 1611.266 640.009, 1598.626 623.017, 1572.768 615.245 C 1568.445 613.946, 1560.191 613.590, 1526.750 613.261 L 1486 612.860 1486 703.930 M 1680 704.001 L 1680 795.166 1712.750 794.759 C 1748.267 794.318, 1751.965 793.828, 1766.716 787.620 C 1803.751 772.032, 1825.456 734.494, 1820.976 693.780 C 1816.818 655.996, 1792.945 627.867, 1755.219 616.300 C 1746.658 613.675, 1745.899 613.620, 1713.250 613.232 L 1680 612.836 1680 704.001 M 747.861 637.910 L 745.500 639.821 745.205 667.411 L 744.910 695 747.409 697.500 C 749.626 699.717, 750.734 699.997, 757.205 699.969 C 788.184 699.838, 803.263 689.372, 803.263 668 C 803.263 646.908, 788.002 636.035, 758.361 636.008 C 751.832 636.001, 749.755 636.378, 747.861 637.910 M 1521.250 637.465 C 1519.007 639.108, 1519 639.201, 1519 667.934 C 1519 693.599, 1519.182 696.905, 1520.664 698.128 C 1521.876 699.127, 1525.476 699.479, 1533.914 699.424 C 1551.969 699.304, 1562.131 696.025, 1569.411 687.967 C 1575.019 681.760, 1576.391 677.834, 1576.391 668 C 1576.391 658.168, 1575.019 654.240, 1569.415 648.038 C 1562.357 640.225, 1553.578 637.161, 1536 636.376 C 1525.372 635.901, 1523.163 636.064, 1521.250 637.465 M 554.721 641.500 C 541.606 644.829, 530.366 652.954, 523.219 664.271 C 502.508 697.064, 512.251 747.232, 542.137 761.693 C 550.571 765.774, 557.699 767.327, 568 767.327 C 578.676 767.327, 585.658 765.711, 594.252 761.253 C 616.616 749.651, 628.527 718.291, 622.180 687.726 C 617.603 665.691, 605.455 650.253, 587.260 643.355 C 578.727 640.120, 563.564 639.255, 554.721 641.500 M 1714.725 642.002 L 1712 644.145 1712 703.918 C 1712 760.554, 1712.096 763.777, 1713.829 765.345 C 1715.246 766.627, 1717.666 766.997, 1724.579 766.985 C 1741.256 766.958, 1754.471 761.974, 1765.856 751.419 C 1773.660 744.184, 1779.029 735.598, 1782.691 724.500 C 1784.976 717.573, 1785.331 714.823, 1785.331 704 C 1785.331 693.177, 1784.976 690.427, 1782.691 683.500 C 1779.001 672.318, 1773.648 663.806, 1765.635 656.376 C 1754.727 646.264, 1743.685 641.845, 1725.975 640.504 C 1718.225 639.917, 1717.203 640.053, 1714.725 642.002 M 757 667.861 L 757 688 762.316 688 C 770.271 688, 778.992 686.140, 783.620 683.457 C 793.280 677.856, 794.549 662.342, 785.979 654.600 C 781.272 650.347, 777.058 649.034, 765.750 648.295 L 757 647.723 757 667.861 M 1531 668.002 L 1531 688.299 1540.250 687.647 C 1556.837 686.478, 1565 679.980, 1565 667.945 C 1565 656.085, 1556.508 649.357, 1540.209 648.301 L 1531 647.704 1531 668.002 M 556.024 653.603 C 535.359 659.156, 522.909 680.534, 524.345 708 C 525.792 735.674, 538.384 751.846, 561.110 755.219 C 569.272 756.430, 579.691 755.115, 586.782 751.978 C 597.095 747.416, 604.751 738.102, 609.100 724.828 C 611.164 718.524, 611.495 715.613, 611.463 704 C 611.430 691.951, 611.134 689.665, 608.714 682.731 C 605.484 673.479, 602.394 668.350, 596.750 662.873 C 586.888 653.302, 570.784 649.637, 556.024 653.603 M 1724 703.828 L 1724 755.618 1730.750 754.876 C 1742.097 753.628, 1750.945 749.607, 1758.540 742.245 C 1778.385 723.009, 1778.950 686.380, 1759.703 666.843 C 1751.447 658.462, 1741.936 654.079, 1728.750 652.579 L 1724 652.038 1724 703.828 M 1339.790 661.750 C 1338.556 663.171, 1317.924 715.923, 1315.582 723.645 C 1315.170 725.005, 1315.519 726.376, 1316.537 727.395 C 1317.928 728.785, 1321.584 729, 1343.871 729 C 1370.265 729, 1372 728.755, 1372 725.029 C 1372 724.165, 1366.816 710.192, 1360.480 693.979 C 1352.321 673.099, 1348.220 663.844, 1346.424 662.250 C 1343.374 659.544, 1341.809 659.426, 1339.790 661.750 M 1337.162 699.980 C 1333.773 708.774, 1331 716.201, 1331 716.485 C 1331 716.768, 1336.625 717, 1343.500 717 C 1351.050 717, 1356 716.609, 1356 716.014 C 1356 715.120, 1344.156 684.846, 1343.571 684.245 C 1343.435 684.105, 1340.551 691.185, 1337.162 699.980" stroke="none" fill="#da50d8" fill-rule="evenodd"/><path d="M 1268.790 155.930 C 1261.297 157.429, 1253.215 165.022, 1245.295 178 C 1223.974 212.939, 1194.900 284.152, 1184.258 327.500 C 1180.998 340.782, 1179.987 343.423, 1175.434 350.559 C 1168.783 360.982, 1157.406 374.132, 1149.638 380.376 C 1143.443 385.356, 1132.918 390.998, 1129.821 390.999 C 1126.734 391.001, 1125.173 388.141, 1124.504 381.259 C 1122.703 362.721, 1114.578 353.525, 1108.282 362.898 C 1106.344 365.783, 1106 367.599, 1106 374.938 C 1106 384.742, 1108.022 393.817, 1111.200 398.281 C 1114.169 402.451, 1114.544 409.361, 1112.542 423.017 C 1109.392 444.495, 1101.151 472.174, 1093.643 486.495 C 1089.212 494.948, 1082.242 502, 1078.319 502 C 1073.569 502, 1070.350 498.822, 1069.525 493.317 C 1067.118 477.268, 1071.005 447.412, 1081.595 400.602 C 1084.071 389.658, 1086.686 379.293, 1087.407 377.568 C 1088.128 375.844, 1092.774 369.048, 1097.732 362.466 C 1109.299 347.114, 1131.797 313.737, 1140.356 299.234 C 1154.850 274.673, 1171.166 238.749, 1176.144 220.438 C 1177.873 214.076, 1178.321 209.522, 1178.401 197.500 C 1178.498 182.740, 1178.452 182.404, 1175.500 176.510 C 1171.711 168.945, 1167.843 166.494, 1159.863 166.603 C 1153.057 166.695, 1147.415 169.657, 1141.199 176.400 C 1120.846 198.480, 1079.040 297.061, 1068.528 347.760 C 1067.114 354.580, 1066.383 355.853, 1056.469 368.760 C 1045.464 383.085, 1033.616 396, 1031.478 396 C 1029.606 396, 1029.145 391.684, 1030.106 383.159 C 1030.942 375.744, 1031.623 372.742, 1035.571 359.071 C 1036.831 354.709, 1037.076 352.525, 1036.335 352.278 C 1035.642 352.047, 1036.281 349.286, 1038.087 344.707 C 1043.394 331.257, 1041.332 324.355, 1031.681 323.267 C 1021.634 322.135, 1014.698 327.620, 1006.082 343.509 C 986.985 378.729, 969.925 402.863, 961.552 406.504 C 957.735 408.164, 956.004 407.430, 955.985 404.143 C 955.972 402.015, 955.766 401.792, 954.927 403 C 953.496 405.059, 954.800 392.934, 956.588 387.550 C 957.932 383.507, 957.933 383.506, 957.479 387 C 957.228 388.925, 957.233 390.050, 957.490 389.500 C 958.388 387.573, 967 357.114, 967 355.863 C 967 353.650, 973.231 338, 974.112 338 C 975.378 338, 978.819 330.777, 980.412 324.780 C 981.183 321.876, 982.122 318.730, 982.499 317.788 C 983.407 315.521, 978.902 311.345, 974.114 310.015 C 961.462 306.501, 952.203 313.821, 945.462 332.666 C 943.921 336.975, 940.996 343.425, 938.962 347 C 936.928 350.575, 934.217 357.325, 932.936 362 C 930.507 370.869, 904.998 423.586, 893.500 443.500 C 884.752 458.651, 872.521 476.265, 867.596 480.805 C 861.856 486.096, 856.095 487.947, 852.566 485.635 C 847.020 482.002, 844.798 471.957, 845.014 451.500 C 845.184 435.365, 845.040 433.509, 843.927 437.500 C 843.345 439.587, 843.248 438.675, 843.606 434.500 C 844.354 425.768, 851.800 381.363, 853.499 375.500 C 854.295 372.750, 858.714 364.425, 863.317 357 C 874.975 338.197, 886.937 316.508, 895.494 298.657 C 899.490 290.321, 904.339 281.221, 906.269 278.435 C 911.549 270.816, 914.446 264.607, 922.525 243.599 C 933.056 216.215, 935.272 207.375, 935.335 192.500 C 935.378 182.182, 935.075 179.815, 933.171 175.617 C 930.107 168.859, 925.570 163.410, 920.655 160.585 C 911.371 155.248, 904.249 156.358, 896.454 164.358 C 889.988 170.994, 881.498 184.738, 875.304 198.596 C 872.624 204.593, 869.578 210.490, 868.536 211.700 C 866.073 214.559, 855.730 238.570, 849.021 257 C 845.729 266.044, 840.398 285.014, 834.853 307.418 C 820.800 364.199, 818.750 373.753, 819.338 379.736 C 819.621 382.617, 819.436 385.231, 818.926 385.546 C 818.417 385.860, 818 388.530, 818 391.479 C 818 394.427, 817.003 403.288, 815.785 411.170 C 812.792 430.529, 812.568 462.449, 815.340 474.500 C 818.035 486.216, 822.964 495.883, 829.017 501.326 C 840.852 511.966, 853.562 511.275, 868.597 499.172 C 880.671 489.453, 903.255 455.762, 919.292 423.546 C 926.993 408.076, 926.972 408.093, 928.549 416 C 928.932 417.925, 930.340 421.671, 931.677 424.324 C 934.365 429.657, 939.309 432.606, 943.927 431.632 C 955.848 429.118, 956.141 428.948, 966.613 418.443 C 974.707 410.323, 979.265 404.461, 989.452 389.072 C 996.452 378.498, 1002.317 369.993, 1002.486 370.173 C 1002.655 370.353, 1001.930 373.875, 1000.874 378 C 996.402 395.470, 999.288 408.435, 1008.839 413.780 C 1021.640 420.944, 1035.189 414.671, 1051.750 393.912 C 1056.508 387.948, 1060.569 383.236, 1060.775 383.442 C 1060.980 383.647, 1059.769 390.269, 1058.082 398.158 C 1051.043 431.080, 1049.180 449.931, 1050.889 470.923 C 1053.402 501.781, 1062.788 515.431, 1081.500 515.440 C 1087.691 515.443, 1089.102 515.064, 1093.712 512.159 C 1103.519 505.980, 1110.875 493.140, 1115.862 473.500 C 1119.105 460.727, 1124.189 429.431, 1124.872 418.032 L 1125.500 407.564 1133.113 405.453 C 1145.560 401.999, 1160.954 391.121, 1169.645 379.635 C 1173.005 375.196, 1174.148 374.191, 1173.781 376 C 1173.502 377.375, 1171.877 385.250, 1170.168 393.500 C 1165.702 415.071, 1163.997 429.985, 1164.020 447.301 C 1164.042 464.483, 1165.101 473.674, 1168.105 482.768 C 1171.414 492.786, 1175.461 497.967, 1183 501.836 C 1188.825 504.825, 1190.145 505.123, 1195.710 504.704 C 1210.021 503.627, 1220.100 492.297, 1227.431 469.045 C 1231.213 457.050, 1237.062 423.569, 1237.728 410.104 C 1238.374 397.041, 1239.120 395.657, 1246.144 394.484 C 1259.351 392.278, 1279.405 376.265, 1288.054 361.018 C 1289.949 357.678, 1294.466 350.728, 1298.092 345.574 C 1305.095 335.618, 1307.632 329.155, 1306.522 324.101 C 1305.097 317.610, 1299.952 321.717, 1290.988 336.500 C 1284.640 346.968, 1274.941 358.979, 1266.934 366.287 C 1259.593 372.987, 1247.585 380, 1243.454 380 C 1240.164 380, 1238 376.383, 1238 370.883 C 1238 364.623, 1234.594 353.933, 1231.555 350.654 C 1225.271 343.873, 1219 350.589, 1219 364.100 C 1219 372.466, 1220.693 379.495, 1224.683 387.695 L 1228.184 394.890 1227.020 404.195 C 1222.259 442.256, 1207.183 483.717, 1196.003 489.499 C 1183.019 496.213, 1179.096 481.104, 1184.451 445 C 1188.325 418.879, 1198.378 370.987, 1201.079 365.784 C 1201.731 364.528, 1206.008 358.514, 1210.583 352.421 C 1222.475 336.582, 1250.494 294.445, 1257.742 281.500 C 1273.193 253.903, 1286.907 221.664, 1290.495 204.500 C 1292.738 193.773, 1292.812 177.186, 1290.650 169.817 C 1289.011 164.228, 1285.373 158.788, 1282.142 157.094 C 1279.506 155.711, 1272.805 155.127, 1268.790 155.930 M 1270.282 177.250 C 1258.523 190.053, 1235.300 247.241, 1216.434 309.856 C 1212.896 321.601, 1210 331.450, 1210 331.741 C 1210 333.790, 1232.128 300.343, 1240.945 284.967 C 1255.618 259.377, 1264.603 238.604, 1272.339 212.380 C 1276.707 197.576, 1278.053 190.910, 1278.139 183.647 C 1278.239 175.270, 1274.727 172.410, 1270.282 177.250 M 911.865 178.250 C 899.307 189.894, 885.126 230.579, 869.085 300.987 C 865.265 317.754, 862.254 331.588, 862.395 331.728 C 862.948 332.281, 893.190 269.715, 898.423 257.194 C 906.189 238.610, 910.052 227.298, 909.300 225.340 C 908.832 224.120, 909.020 223.894, 910 224.500 C 910.968 225.098, 911.170 224.885, 910.726 223.729 C 910.389 222.849, 910.511 221.988, 910.997 221.815 C 911.484 221.642, 913.315 215.875, 915.065 209 C 918.650 194.923, 919.590 180.634, 917.128 177.658 C 915.338 175.496, 914.766 175.560, 911.865 178.250 M 1155.670 189.250 C 1142.736 206.535, 1121.145 260.914, 1101.691 325.206 C 1098.744 334.945, 1096.639 342.723, 1097.013 342.492 C 1098.348 341.667, 1115.857 315.283, 1123.221 303 C 1138.796 277.022, 1146.604 260.482, 1155.324 235 C 1163.290 211.720, 1166.767 193.171, 1164.099 188.185 C 1162.341 184.900, 1158.568 185.377, 1155.670 189.250 M 762.500 195.378 C 747.745 200.203, 735.072 208.214, 723.286 220.169 C 709.461 234.191, 701.158 246.302, 700.470 253.450 C 699.942 258.934, 697.709 266.483, 696.381 267.277 C 694.022 268.687, 693.718 274.970, 695.460 286.330 C 698.620 306.939, 702.995 317.823, 721.393 350.836 C 731.766 369.449, 749.453 403.834, 749.487 405.451 C 749.499 406.028, 750.355 408.638, 751.390 411.251 C 754.069 418.014, 753.291 432.038, 749.752 440.779 C 740.128 464.546, 717.350 482.910, 697.407 482.979 C 688.423 483.010, 683.374 480.052, 679.500 472.488 C 676.520 466.670, 676.501 466.521, 676.583 450.565 C 676.676 432.767, 677.647 427.962, 684.379 412 C 689.467 399.934, 689.095 394, 683.250 394 C 678.206 394, 671.622 399.593, 663.235 411 C 649.756 429.334, 643.382 453.272, 647.417 470.404 C 650.424 483.173, 656.415 491.136, 667.083 496.542 C 681.063 503.626, 704.058 503.792, 724 496.952 C 741.859 490.827, 765.124 475.463, 769.575 466.854 C 771.258 463.601, 770.568 463.204, 767.657 465.750 C 766.557 466.713, 768.005 464.408, 770.875 460.630 C 788.237 437.770, 790.630 413.037, 777.971 387.277 C 775.748 382.754, 769.500 373.079, 764.085 365.777 C 758.671 358.475, 752.811 349.650, 751.064 346.167 C 747.687 339.434, 745.831 335, 746.390 335 C 746.577 335, 750.023 339.725, 754.047 345.500 C 758.072 351.275, 761.559 356, 761.797 356 C 762.035 356, 761.570 354.988, 760.764 353.750 C 754.459 344.072, 742.873 323.880, 739.306 316.354 C 726.517 289.370, 728.028 266.090, 743.967 244.554 C 748.868 237.932, 760.672 226.863, 766.432 223.487 C 768.945 222.015, 770.752 220.408, 770.448 219.916 C 770.145 219.425, 770.668 219.319, 771.612 219.681 C 772.868 220.164, 773.109 219.985, 772.510 219.015 C 771.990 218.174, 772.079 217.931, 772.755 218.349 C 774.082 219.169, 777.162 218.071, 776.507 217.011 C 775.799 215.865, 781.671 213.679, 783.094 214.558 C 783.840 215.019, 784.050 214.891, 783.640 214.227 C 782.763 212.807, 786.384 211.692, 789.250 212.498 C 790.783 212.929, 791.076 212.836, 790.169 212.207 C 788.482 211.035, 793.462 209.929, 799.375 210.163 C 803.274 210.317, 803.198 210.366, 798 211.051 L 792.500 211.775 798.657 211.638 C 802.044 211.562, 804.642 211.777, 804.431 212.116 C 804.220 212.455, 804.937 213.538, 806.024 214.521 C 807.242 215.624, 808 217.593, 808 219.655 C 808 221.495, 808.450 223, 809 223 C 810.706 223, 810.095 218.669, 807.871 215 L 805.750 211.500 807.837 213.371 C 812.721 217.748, 812.969 226.889, 808.555 239.808 C 805.775 247.944, 800.748 259.132, 798.481 262.226 L 796.815 264.500 797.515 262 C 799.104 256.323, 794.878 262.804, 790.632 272.554 C 788.250 278.024, 785.337 284.287, 784.158 286.472 C 782.286 289.941, 782.198 290.627, 783.464 291.893 C 786.012 294.440, 792.317 291.683, 798.825 285.175 C 811.937 272.063, 832.225 241.667, 835.140 230.765 C 836.716 224.873, 835.538 220.748, 829.779 212 C 826.003 206.264, 824.618 205.056, 818 201.726 C 801.056 193.201, 777.426 190.498, 762.500 195.378 M 875.987 210.020 C 873.155 214.434, 866.548 229.927, 864.482 237 C 863.248 241.224, 864.443 239.019, 870.984 225 C 881.123 203.272, 881.997 200.654, 875.987 210.020 M 885.510 278.980 C 883.030 283.919, 881.007 288.307, 881.015 288.730 C 881.037 289.800, 887.737 277.874, 889.545 273.547 C 892.327 266.888, 890.028 269.983, 885.510 278.980 M 1030.642 348.041 C 1028.955 351.929, 1028.026 355.825, 1028.071 358.816 C 1028.136 363.139, 1028.362 362.693, 1031.012 353.024 C 1032.590 347.263, 1033.747 342.414, 1033.583 342.249 C 1033.418 342.085, 1032.094 344.691, 1030.642 348.041 M 655.175 433.717 C 648.780 451.382, 648.555 466.292, 654.503 478.370 C 655.892 481.191, 656.765 482.600, 656.443 481.500 C 651.652 465.143, 651.863 445.010, 656.967 431.588 C 657.566 430.012, 657.879 428.545, 657.662 428.329 C 657.445 428.112, 656.326 430.537, 655.175 433.717 M 1179.564 437.750 C 1178.581 442.563, 1177.652 451.675, 1177.501 458 C 1177.349 464.325, 1177.404 467.250, 1177.623 464.500 C 1177.842 461.750, 1178.667 455, 1179.457 449.500 C 1181.613 434.496, 1182.233 429, 1181.770 429 C 1181.541 429, 1180.548 432.938, 1179.564 437.750 M 1065.740 451.595 C 1064.784 456.581, 1063.789 464.899, 1063.529 470.080 C 1062.983 480.924, 1063.738 477.941, 1066.491 458.379 C 1068.583 443.508, 1068.110 439.231, 1065.740 451.595" stroke="none" fill="#067dfc" fill-rule="evenodd"/></svg>